#N canvas 160 119 758 529 10;
#X obj 34 400 select 1;
#X text 130 263 specify desired number of hits per bar;
#X text 212 316 specify length of bar;
#X text 72 230 <-- send an integer to find out if there should be a
hit on that beat;
#X obj 34 335 % \$3;
#X text 36 450 Generates 'euclidean rhythms' (see cgm.cs.mcgill.ca/~godfried/publications/banff.pdf).
Ideally to be used with a [metro]-powered [f ]x[+ 1] counter attached
to the first inlet. Hits per bar \, offset and bar length can be set
by the first three arguments respectively.;
#X text 96 399 <-- bang out on each hit. (Silent on rest.);
#X obj 34 270 + \$2;
#X obj 34 302 * \$1;
#X obj 34 368 < \$1;
#X text 152 288 rhythm offset/rotation;
#X floatatom 35 230 5 0 0 0 - - - 0;
#X floatatom 94 265 5 0 0 0 - - - 0;
#X floatatom 113 286 5 0 0 0 - - - 0;
#X floatatom 172 316 5 0 0 0 - - - 0;
#X obj 69 148 f;
#X obj 125 157 % 16;
#X obj 125 133 + 1;
#X obj 31 18 inlet;
#X obj 34 429 outlet;
#X obj 112 116 hradio 15 1 0 16 empty empty hits 0 -8 0 10 #fcfcfc
#000000 #000000 0;
#X obj 112 146 hradio 15 1 0 16 empty empty offset 0 -8 0 10 #fcfcfc
#000000 #000000 0;
#X obj 111 177 hradio 15 1 0 16 empty empty length 0 -8 0 10 #fcfcfc
#000000 #000000 0;
#X floatatom 21 136 5 0 0 0 - - - 0;
#X floatatom 15 191 5 0 0 0 - - - 0;
#X obj 76 16 inlet;
#X connect 0 0 19 0;
#X connect 4 0 9 0;
#X connect 7 0 8 0;
#X connect 8 0 4 0;
#X connect 9 0 0 0;
#X connect 11 0 7 0;
#X connect 12 0 9 1;
#X connect 12 0 8 1;
#X connect 13 0 7 1;
#X connect 14 0 4 1;
#X connect 14 0 16 1;
#X connect 15 0 17 0;
#X connect 15 0 11 0;
#X connect 16 0 15 1;
#X connect 17 0 16 0;
#X connect 18 0 15 0;
#X connect 20 0 23 0;
#X connect 21 0 24 0;
#X connect 22 0 14 0;
#X connect 23 0 12 0;
#X connect 24 0 13 0;
#X connect 25 0 22 0;
#X coords 0 -1 1 1 300 100 2 100 100;
