#N canvas 114 119 805 753 10;
#X obj 18 402 select 1;
#X text 114 265 specify desired number of hits per bar;
#X text 196 318 specify length of bar;
#X text 61 207 <-- send an integer to find out if there should be a
hit on that beat;
#X obj 18 337 % \$3;
#X text 20 452 Generates 'euclidean rhythms' (see cgm.cs.mcgill.ca/~godfried/publications/banff.pdf).
Ideally to be used with a [metro]-powered [f ]x[+ 1] counter attached
to the first inlet. Hits per bar \, offset and bar length can be set
by the first three arguments respectively.;
#X text 80 401 <-- bang out on each hit. (Silent on rest.);
#X obj 18 272 + \$2;
#X obj 18 304 * \$1;
#X obj 18 370 < \$1;
#X text 136 290 rhythm offset/rotation;
#X floatatom 24 207 5 0 0 0 - - - 0;
#X floatatom 86 265 4 0 0 0 - \$0-hits - 0;
#X floatatom 373 146 4 0 0 0 - \$0-offset - 0;
#X floatatom 372 176 4 0 0 0 - \$0-length - 0;
#X obj 21 74 f;
#X obj 65 106 % 16;
#X obj 30 97 + 1;
#X obj 18 431 outlet;
#X obj 112 116 hradio 15 1 0 17 \$0-hits empty hits 0 -8 0 10 #fcfcfc
#000000 #000000 0;
#X obj 112 146 hradio 15 1 0 17 \$0-offset empty offset 0 -8 0 10 #fcfcfc
#000000 #000000 0;
#X obj 111 177 hradio 15 1 0 17 \$0-length \$0-global-length length
0 -8 0 10 #fcfcfc #000000 #000000 0;
#X floatatom 373 116 4 0 0 0 - \$0-hits - 0;
#X floatatom 38 251 5 0 0 0 - \$0-offset - 0;
#X obj 99 309 r \$0-length;
#X obj 60 75 r \$0-len;
#X obj 24 13 inlet;
#X connect 0 0 18 0;
#X connect 4 0 9 0;
#X connect 7 0 8 0;
#X connect 8 0 4 0;
#X connect 9 0 0 0;
#X connect 11 0 7 0;
#X connect 12 0 9 1;
#X connect 12 0 8 1;
#X connect 15 0 17 0;
#X connect 15 0 11 0;
#X connect 16 0 15 1;
#X connect 17 0 16 0;
#X connect 23 0 7 1;
#X connect 24 0 4 1;
#X connect 25 0 16 1;
#X connect 26 0 15 0;
#X coords 0 -1 1 1 300 100 2 100 100;
