#N canvas 370 187 805 753 10;
#X obj 18 402 select 1;
#X text 61 207 <-- send an integer to find out if there should be a
hit on that beat;
#X text 20 452 Generates 'euclidean rhythms' (see cgm.cs.mcgill.ca/~godfried/publications/banff.pdf).
Ideally to be used with a [metro]-powered [f ]x[+ 1] counter attached
to the first inlet. Hits per bar \, offset and bar length can be set
by the first three arguments respectively.;
#X text 80 401 <-- bang out on each hit. (Silent on rest.);
#X floatatom 24 207 5 0 0 0 - - - 0;
#X floatatom 95 271 4 0 0 1 n\ hits \$0-hits - 0;
#X floatatom 373 146 4 0 0 0 - \$0-offset - 0;
#X floatatom 372 176 4 0 0 0 - \$0-length - 0;
#X obj 18 431 outlet;
#X obj 112 116 hradio 15 1 0 17 \$0-hits empty hits 0 -8 0 10 #fcfcfc
#000000 #000000 0;
#X obj 112 146 hradio 15 1 0 17 \$0-offset empty offset 0 -8 0 10 #fcfcfc
#000000 #000000 0;
#X obj 115 177 hradio 15 1 1 17 \$0-length \$0-global-length length
0 -8 0 10 #fcfcfc #000000 #000000 16;
#X floatatom 373 116 4 0 0 0 - \$0-hits - 0;
#X floatatom 95 251 5 0 0 1 offset \$0-offset - 0;
#X obj 47 45 r \$1-hit;
#X obj 18 304 *;
#X obj 18 337 %;
#X obj 18 272 +;
#X obj 18 370 <;
#X floatatom 91 319 5 0 0 1 length \$0-length - 0;
#N canvas 507 459 450 300 counter 0;
#X obj 245 87 f;
#X obj 289 119 % 16;
#X obj 254 110 + 1;
#X obj 284 88 r \$0-len;
#X obj 244 52 inlet;
#X obj 246 164 outlet;
#X connect 0 0 2 0;
#X connect 0 0 5 0;
#X connect 1 0 0 1;
#X connect 2 0 1 0;
#X connect 3 0 1 1;
#X connect 4 0 0 0;
#X restore 30 109 pd counter;
#X obj 229 629 bng 15 250 50 0 empty empty empty 17 7 0 10 #fcfcfc
#000000 #000000;
#X obj 325 631 bng 15 250 50 0 empty empty empty 17 7 0 10 #fcfcfc
#000000 #000000;
#X obj 233 595 r \$0-\$1-out;
#X obj 100 430 s \$0-\$1-out;
#X obj 327 595 r \$0-kick-out;
#X connect 0 0 8 0;
#X connect 0 0 24 0;
#X connect 4 0 17 0;
#X connect 5 0 15 1;
#X connect 5 0 18 1;
#X connect 13 0 17 1;
#X connect 14 0 20 0;
#X connect 15 0 16 0;
#X connect 16 0 18 0;
#X connect 17 0 15 0;
#X connect 18 0 0 0;
#X connect 19 0 16 1;
#X connect 20 0 4 0;
#X connect 23 0 21 0;
#X connect 25 0 22 0;
#X coords 0 -1 1 1 300 100 2 100 100;
