#N canvas 9 25 1398 847 12;
#X floatatom 98 115 5 20 320 0 - - - 0;
#X floatatom 98 185 5 0 0 0 - - - 0;
#X obj 98 153 expr (60/$f1)*1000;
#X text 134 116 bpm;
#X text 141 186 ms;
#X obj 71 230 metro;
#X obj 67 117 tgl 15 0 empty empty empty 17 7 0 10 #fcfcfc #000000
#000000 0 1;
#X text 15 115 on/off;
#X obj 305 92 hradio 15 1 0 16 empty empty global\\\ length 0 -8 0
10 #fcfcfc #000000 #000000 0;
#X obj 62 37 hsl 128 15 20 320 0 1 empty empty bpm -2 -8 0 10 #fcfcfc
#000000 #000000 4900 1;
#X obj 104 73 int;
#X obj 231 9 loadbang;
#X msg 226 44 16;
#X obj 101 309 e2;
#X obj 430 309 e2;
#X obj 756 306 e2;
#X obj 92 457 drums/kick;
#X obj 563 740 out1~;
#X obj 476 458 drums/AMsnare;
#X obj 899 458 drums/AMhihats;
#X obj 1066 305 e2;
#X connect 0 0 2 0;
#X connect 1 0 5 1;
#X connect 2 0 1 0;
#X connect 5 0 13 0;
#X connect 5 0 14 0;
#X connect 5 0 15 0;
#X connect 5 0 20 0;
#X connect 6 0 5 0;
#X connect 8 0 13 1;
#X connect 8 0 14 1;
#X connect 8 0 15 1;
#X connect 8 0 20 1;
#X connect 9 0 10 0;
#X connect 10 0 0 0;
#X connect 11 0 12 0;
#X connect 12 0 8 0;
#X connect 13 0 16 0;
#X connect 14 0 18 0;
#X connect 15 0 19 0;
#X connect 16 0 17 0;
#X connect 18 0 17 0;
#X connect 19 0 17 0;
#X connect 20 0 19 1;
