#N canvas 675 103 706 569 12;
#X obj 226 54 hsl 128 15 30 330 0 1 \$0-bpm \$0-bpm-r Bpm 29 -8 0 12
#fcfcfc #000000 #000000 2994 1;
#X obj 134 27 tgl 15 0 \$0-startstop empty Stop/Start -7 -8 0 10 #fcfcfc
#000000 #000000 0 1;
#X obj 135 45 bng 15 250 50 0 empty \$0-hit hit 17 7 0 10 #fcfcfc #000000
#000000;
#X floatatom 222 34 4 0 0 0 - \$0-int-bpm - 0;
#X obj 372 32 hradio 15 1 1 8 \$0-div empty Divisions\\\ /\\\ \\\ Beat
0 -8 0 10 #fcfcfc #000000 #000000 3;
#N canvas 759 126 450 300 metro_guts 0;
#X obj 20 31 r \$0-bpm;
#X obj 19 58 int;
#X obj 5 157 metro;
#X obj 9 8 r \$0-startstop;
#X obj 5 180 s \$0-hit;
#X obj 197 79 r \$0-div;
#X obj 198 103 + 1;
#X obj 19 126 expr ((60/$f1)*1000) / $f2;
#X obj 32 88 s \$0-int-bpm;
#X connect 0 0 1 0;
#X connect 1 0 7 0;
#X connect 1 0 8 0;
#X connect 2 0 4 0;
#X connect 3 0 2 0;
#X connect 5 0 6 0;
#X connect 6 0 7 1;
#X connect 7 0 2 1;
#X restore 223 74 pd metro_guts;
#N canvas 33 134 642 708 kick 0;
#X obj 211 301 vline~;
#X obj 165 434 *~;
#X obj 165 409 cos~;
#X obj 164 385 *~;
#X obj 164 362 *~;
#X obj 181 218 t f f;
#X obj 165 338 *~;
#X msg 211 279 1 0 0 \, 0 \$1 0;
#X msg 181 194 70;
#X obj 181 244 / 29;
#X msg 274 196 33.9;
#X msg 237 196 30.5;
#X msg 312 196 36.1;
#X obj 233 53 sel 0 1 2;
#X obj 164 461 outlet~;
#X obj 220 508 switch~;
#X obj 220 460 env~;
#X obj 220 484 > 0.1;
#X msg 360 197 1;
#X obj 290 85 t b b b;
#X obj 252 112 t b b b;
#X obj 215 142 t b b b;
#X obj 233 26 inlet;
#X text 284 445 efficient kick drum;
#X text 321 467 ajf;
#X obj 137 508 dac~;
#X connect 0 0 1 1;
#X connect 0 0 6 0;
#X connect 0 0 3 1;
#X connect 1 0 14 0;
#X connect 1 0 16 0;
#X connect 1 0 25 0;
#X connect 2 0 1 0;
#X connect 3 0 2 0;
#X connect 4 0 3 0;
#X connect 5 0 9 0;
#X connect 5 1 7 0;
#X connect 6 0 4 1;
#X connect 6 0 4 0;
#X connect 7 0 0 0;
#X connect 8 0 5 0;
#X connect 9 0 6 1;
#X connect 10 0 9 1;
#X connect 11 0 9 1;
#X connect 12 0 9 1;
#X connect 13 0 21 0;
#X connect 13 1 20 0;
#X connect 13 2 19 0;
#X connect 16 0 17 0;
#X connect 17 0 15 0;
#X connect 18 0 15 0;
#X connect 19 0 8 0;
#X connect 19 1 12 0;
#X connect 19 2 18 0;
#X connect 20 0 8 0;
#X connect 20 1 10 0;
#X connect 20 2 18 0;
#X connect 21 0 8 0;
#X connect 21 1 11 0;
#X connect 21 2 18 0;
#X connect 22 0 13 0;
#X restore 32 250 pd kick;
#N canvas 579 43 612 674 snare 0;
#X obj 211 301 vline~;
#X obj 197 516 *~;
#X obj 165 348 cos~;
#X obj 181 218 t f f;
#X obj 165 328 *~;
#X msg 181 192 70;
#X obj 196 543 outlet~;
#X obj 252 590 switch~;
#X obj 252 542 env~;
#X obj 252 566 > 0.1;
#X msg 315 276 1;
#X obj 215 142 t b b b;
#X obj 215 88 inlet;
#X text 353 549 ajf;
#X obj 211 359 *~;
#X obj 197 493 cos~;
#X obj 150 399 +~;
#X obj 99 426 *~;
#X obj 212 384 *~;
#X obj 151 374 sig~ 5;
#X msg 237 196 6;
#X obj 181 244 /;
#X msg 211 279 1 0 0 \, 0 \$1 3;
#X text 317 527 efficient snare drum;
#X obj 215 113 sel 1;
#X obj 135 167 del 5;
#X msg 135 192 90;
#X obj 64 345 r~ \$0-fb-sn;
#X obj 130 575 s~ \$0-fb-sn;
#X connect 0 0 4 0;
#X connect 0 0 14 0;
#X connect 0 0 14 1;
#X connect 1 0 6 0;
#X connect 1 0 8 0;
#X connect 1 0 28 0;
#X connect 2 0 16 1;
#X connect 3 0 21 0;
#X connect 3 1 22 0;
#X connect 4 0 2 0;
#X connect 5 0 3 0;
#X connect 8 0 9 0;
#X connect 9 0 7 0;
#X connect 10 0 7 0;
#X connect 11 0 25 0;
#X connect 11 1 20 0;
#X connect 11 2 10 0;
#X connect 12 0 24 0;
#X connect 14 0 18 0;
#X connect 14 0 18 1;
#X connect 15 0 1 0;
#X connect 16 0 17 1;
#X connect 17 0 15 0;
#X connect 18 0 1 1;
#X connect 19 0 16 0;
#X connect 20 0 21 1;
#X connect 21 0 4 1;
#X connect 22 0 0 0;
#X connect 24 0 11 0;
#X connect 25 0 26 0;
#X connect 25 0 5 0;
#X connect 26 0 3 0;
#X connect 27 0 17 0;
#X restore 341 255 pd snare;
#X msg 32 226 1;
#X msg 342 231 1;
#N canvas 253 166 627 606 hat 0;
#N canvas 96 190 676 682 hhnoise 0;
#X obj 178 566 outlet~;
#X obj 194 311 *~;
#X obj 178 479 +~;
#X obj 179 540 osc~;
#X obj 195 426 *~;
#X obj 195 203 unpack f f f f f;
#X obj 177 450 sig~;
#X obj 195 250 osc~;
#X obj 209 274 osc~;
#N canvas 730 13 450 300 programmer 0;
#X msg 99 193 2834.65 2165.35 0.811024 1771.65 6708.66;
#X obj 244 63 hsl 128 15 0 5000 0 0 empty empty modf1 32 7 1 8 #fcfcfc
#000000 #000000 0 1;
#X obj 136 147 pack f f f f f;
#X obj 136 124 t b;
#X msg 136 169 set \$1 \$2 \$3 \$4 \$5;
#X obj 244 78 hsl 128 15 0 5000 0 0 empty empty modf2 32 7 1 8 #fcfcfc
#000000 #000000 0 1;
#X obj 244 93 hsl 128 15 0 1 0 0 empty empty env 32 7 1 8 #fcfcfc #000000
#000000 0 1;
#X obj 244 108 hsl 128 15 0 5000 0 0 empty empty fm_amount 32 7 1 8
#fcfcfc #000000 #000000 0 1;
#X obj 244 123 hsl 128 15 0 12000 0 0 empty empty base_freq 32 7 1
8 #fcfcfc #000000 #000000 0 1;
#X obj 95 150 del 2;
#X obj 96 224 outlet;
#X msg 122 259 1141.73 472.441 0.645669 2874.02 10299.2;
#X msg 149 230 748.031 1023.62 0.173228 1968.5 9259.84;
#X msg 183 277 2834.65 2165.35 0.511811 4370.08 8125.98;
#X obj 304 162 loadbang;
#X connect 0 0 10 0;
#X connect 1 0 2 0;
#X connect 1 0 3 0;
#X connect 2 0 4 0;
#X connect 3 0 2 0;
#X connect 3 0 9 0;
#X connect 4 0 0 0;
#X connect 5 0 2 1;
#X connect 5 0 3 0;
#X connect 6 0 2 2;
#X connect 6 0 3 0;
#X connect 7 0 2 3;
#X connect 7 0 3 0;
#X connect 8 0 2 4;
#X connect 8 0 3 0;
#X connect 9 0 0 0;
#X connect 11 0 10 0;
#X connect 12 0 10 0;
#X connect 13 0 10 0;
#X connect 14 0 12 0;
#X restore 195 177 pd programmer;
#X obj 153 311 +~;
#N canvas 0 0 450 300 xf 0;
#X obj 107 37 inlet~;
#X obj 158 37 inlet~;
#X obj 123 135 *~;
#X obj 152 134 *~;
#X obj 134 178 outlet~;
#X obj 171 87 sig~ 1;
#X obj 169 108 -~;
#X obj 227 37 inlet~ xfade;
#X connect 0 0 2 0;
#X connect 1 0 3 0;
#X connect 2 0 4 0;
#X connect 3 0 4 0;
#X connect 5 0 6 0;
#X connect 6 0 3 1;
#X connect 7 0 6 1;
#X connect 7 0 2 1;
#X restore 154 351 pd xf;
#X text 263 302 2 ringmod;
#X obj 223 311 *~;
#X obj 222 133 inlet~ spectrum env;
#X obj 124 591 s~ \$0-fb;
#X obj 208 482 r~ \$0-fb;
#X obj 179 516 +~;
#X text 219 540 fbfm;
#X obj 125 567 *~ 600;
#X connect 1 0 11 1;
#X connect 2 0 17 0;
#X connect 3 0 0 0;
#X connect 3 0 19 0;
#X connect 4 0 2 1;
#X connect 5 0 7 0;
#X connect 5 1 8 0;
#X connect 5 2 13 1;
#X connect 5 3 4 1;
#X connect 5 4 6 0;
#X connect 6 0 2 0;
#X connect 7 0 1 0;
#X connect 7 0 10 0;
#X connect 8 0 1 1;
#X connect 8 0 10 1;
#X connect 9 0 5 0;
#X connect 10 0 11 0;
#X connect 11 0 4 0;
#X connect 13 0 11 2;
#X connect 14 0 13 0;
#X connect 16 0 17 1;
#X connect 17 0 3 0;
#X connect 19 0 15 0;
#X restore 70 396 pd hhnoise;
#X obj 131 434 *~;
#X obj 147 349 vline~;
#X obj 148 395 *~;
#X obj 131 513 switch~;
#X obj 131 461 env~;
#X msg 172 486 1;
#X obj 147 164 t b b;
#X obj 131 486 > 0.1;
#X obj 72 485 outlet~;
#X obj 197 164 t b b;
#X msg 147 293 \$1 0 0 \, 0 \$2 1;
#X obj 147 270 pack f f;
#X obj 147 219 t f f;
#X obj 197 217 t f f;
#X msg 147 193 0.6;
#X msg 197 194 1;
#X obj 302 113 inlet decay;
#X obj 243 247 *;
#X obj 196 247 *;
#X obj 315 171 * 600;
#X text 202 429 fm hi hat;
#X text 96 505 ajf;
#X obj 175 87 inlet hihat;
#X obj 396 88 loadbang;
#X obj 175 115 sel 2 1;
#X msg 396 113 0.1;
#X obj 263 171 * 7000;
#X connect 0 0 1 0;
#X connect 1 0 5 0;
#X connect 1 0 9 0;
#X connect 2 0 3 0;
#X connect 2 0 3 1;
#X connect 2 0 0 0;
#X connect 3 0 1 1;
#X connect 5 0 8 0;
#X connect 6 0 4 0;
#X connect 7 0 15 0;
#X connect 7 1 6 0;
#X connect 8 0 4 0;
#X connect 10 0 16 0;
#X connect 10 1 6 0;
#X connect 11 0 2 0;
#X connect 12 0 11 0;
#X connect 13 0 12 0;
#X connect 13 1 19 0;
#X connect 14 0 12 0;
#X connect 14 1 18 0;
#X connect 15 0 13 0;
#X connect 16 0 14 0;
#X connect 17 0 20 0;
#X connect 17 0 27 0;
#X connect 18 0 12 1;
#X connect 19 0 12 1;
#X connect 20 0 18 1;
#X connect 23 0 25 0;
#X connect 24 0 26 0;
#X connect 25 0 7 0;
#X connect 25 1 10 0;
#X connect 26 0 20 0;
#X connect 26 0 27 0;
#X connect 27 0 19 1;
#X restore 33 455 pd hat;
#X msg 33 432 1;
#X msg 342 441 2;
#X obj 498 481 dac~;
#X obj 32 275 throw~ \$0-out;
#X obj 493 446 catch~ \$0-out;
#X obj 341 279 throw~ \$0-out;
#X obj 36 478 throw~ \$0-out;
#X obj 342 488 throw~ \$0-out;
#N canvas 314 209 732 632 ohat 0;
#N canvas 475 183 676 682 hhnoise 0;
#X obj 178 566 outlet~;
#X obj 194 311 *~;
#X obj 178 479 +~;
#X obj 179 540 osc~;
#X obj 195 426 *~;
#X obj 195 203 unpack f f f f f;
#X obj 177 450 sig~;
#X obj 195 250 osc~;
#X obj 209 274 osc~;
#N canvas 730 13 450 300 programmer 0;
#X msg 99 193 2834.65 2165.35 0.811024 1771.65 6708.66;
#X obj 244 63 hsl 128 15 0 5000 0 0 empty empty modf1 32 7 1 8 #fcfcfc
#000000 #000000 0 1;
#X obj 136 147 pack f f f f f;
#X obj 136 124 t b;
#X msg 136 169 set \$1 \$2 \$3 \$4 \$5;
#X obj 244 78 hsl 128 15 0 5000 0 0 empty empty modf2 32 7 1 8 #fcfcfc
#000000 #000000 0 1;
#X obj 244 93 hsl 128 15 0 1 0 0 empty empty env 32 7 1 8 #fcfcfc #000000
#000000 0 1;
#X obj 244 108 hsl 128 15 0 5000 0 0 empty empty fm_amount 32 7 1 8
#fcfcfc #000000 #000000 0 1;
#X obj 244 123 hsl 128 15 0 12000 0 0 empty empty base_freq 32 7 1
8 #fcfcfc #000000 #000000 0 1;
#X obj 95 150 del 2;
#X obj 96 224 outlet;
#X msg 122 259 1141.73 472.441 0.645669 2874.02 10299.2;
#X msg 149 230 748.031 1023.62 0.173228 1968.5 9259.84;
#X msg 183 277 2834.65 2165.35 0.511811 4370.08 8125.98;
#X obj 304 162 loadbang;
#X connect 0 0 10 0;
#X connect 1 0 2 0;
#X connect 1 0 3 0;
#X connect 2 0 4 0;
#X connect 3 0 2 0;
#X connect 3 0 9 0;
#X connect 4 0 0 0;
#X connect 5 0 2 1;
#X connect 5 0 3 0;
#X connect 6 0 2 2;
#X connect 6 0 3 0;
#X connect 7 0 2 3;
#X connect 7 0 3 0;
#X connect 8 0 2 4;
#X connect 8 0 3 0;
#X connect 9 0 0 0;
#X connect 11 0 10 0;
#X connect 12 0 10 0;
#X connect 13 0 10 0;
#X connect 14 0 12 0;
#X restore 195 177 pd programmer;
#X obj 153 311 +~;
#N canvas 0 0 450 300 xf 0;
#X obj 107 37 inlet~;
#X obj 158 37 inlet~;
#X obj 123 135 *~;
#X obj 152 134 *~;
#X obj 134 178 outlet~;
#X obj 171 87 sig~ 1;
#X obj 169 108 -~;
#X obj 227 37 inlet~ xfade;
#X connect 0 0 2 0;
#X connect 1 0 3 0;
#X connect 2 0 4 0;
#X connect 3 0 4 0;
#X connect 5 0 6 0;
#X connect 6 0 3 1;
#X connect 7 0 6 1;
#X connect 7 0 2 1;
#X restore 154 351 pd xf;
#X text 263 302 2 ringmod;
#X obj 223 311 *~;
#X obj 222 133 inlet~ spectrum env;
#X obj 179 516 +~;
#X text 219 540 fbfm;
#X obj 125 567 *~ 600;
#X obj 208 482 r~ \$0-fb-hhn;
#X obj 124 591 s~ \$0-fb-hhn;
#X connect 1 0 11 1;
#X connect 2 0 15 0;
#X connect 3 0 0 0;
#X connect 3 0 17 0;
#X connect 4 0 2 1;
#X connect 5 0 7 0;
#X connect 5 1 8 0;
#X connect 5 2 13 1;
#X connect 5 3 4 1;
#X connect 5 4 6 0;
#X connect 6 0 2 0;
#X connect 7 0 1 0;
#X connect 7 0 10 0;
#X connect 8 0 1 1;
#X connect 8 0 10 1;
#X connect 9 0 5 0;
#X connect 10 0 11 0;
#X connect 11 0 4 0;
#X connect 13 0 11 2;
#X connect 14 0 13 0;
#X connect 15 0 3 0;
#X connect 17 0 19 0;
#X connect 18 0 15 1;
#X restore 70 396 pd hhnoise;
#X obj 131 434 *~;
#X obj 147 349 vline~;
#X obj 148 395 *~;
#X obj 131 513 switch~;
#X obj 131 461 env~;
#X msg 172 486 1;
#X obj 147 164 t b b;
#X obj 131 486 > 0.1;
#X obj 72 485 outlet~;
#X obj 197 164 t b b;
#X msg 147 293 \$1 0 0 \, 0 \$2 1;
#X obj 147 270 pack f f;
#X obj 147 219 t f f;
#X obj 197 217 t f f;
#X msg 147 193 0.6;
#X msg 197 194 1;
#X obj 302 113 inlet decay;
#X obj 243 247 *;
#X obj 196 247 *;
#X obj 315 171 * 600;
#X text 202 429 fm hi hat;
#X text 96 505 ajf;
#X obj 175 87 inlet hihat;
#X obj 396 88 loadbang;
#X obj 175 115 sel 2 1;
#X msg 396 113 0.1;
#X obj 263 171 * 7000;
#X connect 0 0 1 0;
#X connect 1 0 5 0;
#X connect 1 0 9 0;
#X connect 2 0 3 0;
#X connect 2 0 3 1;
#X connect 2 0 0 0;
#X connect 3 0 1 1;
#X connect 5 0 8 0;
#X connect 6 0 4 0;
#X connect 7 0 15 0;
#X connect 7 1 6 0;
#X connect 8 0 4 0;
#X connect 10 0 16 0;
#X connect 10 1 6 0;
#X connect 11 0 2 0;
#X connect 12 0 11 0;
#X connect 13 0 12 0;
#X connect 13 1 19 0;
#X connect 14 0 12 0;
#X connect 14 1 18 0;
#X connect 15 0 13 0;
#X connect 16 0 14 0;
#X connect 17 0 20 0;
#X connect 17 0 27 0;
#X connect 18 0 12 1;
#X connect 19 0 12 1;
#X connect 20 0 18 1;
#X connect 23 0 25 0;
#X connect 24 0 26 0;
#X connect 25 0 7 0;
#X connect 25 1 10 0;
#X connect 26 0 20 0;
#X connect 26 0 27 0;
#X connect 27 0 19 1;
#X restore 342 465 pd ohat;
#X msg 546 59 4;
#X obj 548 34 loadbang;
#X obj 546 83 s \$0-div;
#X msg 459 62 96;
#X obj 454 91 s \$0-bpm-r;
#X obj 341 122 euclid \$0;
#X obj 32 121 euclid \$0;
#X obj 34 326 euclid \$0;
#X obj 351 329 euclid \$0;
#X obj 488 265 bng 15 250 50 0 empty empty empty 17 7 0 10 #fcfcfc
#000000 #000000;
#X obj 163 458 bng 15 250 50 0 empty empty empty 17 7 0 10 #fcfcfc
#000000 #000000;
#X obj 426 460 bng 15 250 50 0 empty empty empty 17 7 0 10 #fcfcfc
#000000 #000000;
#X obj 130 248 bng 15 250 50 0 empty empty empty 17 7 0 10 #fcfcfc
#000000 #000000;
#X connect 6 0 14 0;
#X connect 7 0 16 0;
#X connect 8 0 6 0;
#X connect 8 0 32 0;
#X connect 9 0 7 0;
#X connect 9 0 29 0;
#X connect 10 0 17 0;
#X connect 11 0 10 0;
#X connect 12 0 19 0;
#X connect 15 0 13 0;
#X connect 15 0 13 1;
#X connect 19 0 18 0;
#X connect 20 0 22 0;
#X connect 21 0 20 0;
#X connect 21 0 23 0;
#X connect 23 0 24 0;
#X connect 25 0 9 0;
#X connect 26 0 8 0;
#X connect 27 0 11 0;
#X connect 27 0 30 0;
#X connect 28 0 12 0;
#X connect 28 0 31 0;
