#N canvas 448 341 960 366 10;
#X obj 3 3 cnv 15 300 180 empty empty empty 20 12 0 14 #b8b8b8 #404040
0;
#X obj 244 6 bng 40 250 50 0 hihat_c_bang empty HIHAT_C 3 20 0 8 #fc0400
#000000 #000000;
#X obj 74 9 vsl 15 128 2000 10000 0 1 hihat_pitch_3 empty empty 0 -9
0 10 #fcfcfc #000000 #000000 3800 1;
#X obj 109 26 vsl 15 128 500 6500 0 1 hihat_hpf empty empty 0 -9 0
10 #fcfcfc #000000 #000000 1500 1;
#X obj 184 23 vsl 15 128 6 2000 0 1 hihat_op_decay empty empty 0 -9
0 10 #fcfcfc #000000 #000000 6000 1;
#X obj 145 8 vsl 15 128 2 175 0 1 hihat_cl_decay empty empty 0 -9 0
10 #fcfcfc #000000 #000000 2200 1;
#X obj 9 11 vsl 15 128 2000 10000 0 1 hihat_pitch_1 empty empty 0 -9
0 10 #fcfcfc #000000 #000000 9100 1;
#X text 127 140 Cl Decay;
#X text 162 155 Op Decay;
#X obj 244 49 bng 40 250 50 0 hihat_o_bang empty HIHAT_O 3 20 0 8 #fc0400
#000000 #000000;
#X text 107 158 HPF;
#X text -11 143 Pitch 1;
#X text 59 141 Pitch 3;
#X obj 40 26 vsl 15 128 2000 10000 0 1 hihat_pitch_2 empty empty 0
-9 0 10 #fcfcfc #000000 #000000 4000 1;
#X text 20 158 Pitch 2;
#N canvas 0 135 733 689 AMhihat 1;
#X obj 440 161 t b b;
#X obj 330 437 *~;
#X obj 440 233 pack;
#X obj 440 211 f;
#X msg 440 256 0 \$1;
#X obj 455 107 nbx 5 14 2 175 0 1 empty hihat_cl_decay empty 0 -8 0
10 #fcfcfc #000000 #000000 31.9685 256;
#X obj 440 48 bng 15 250 50 0 empty hihat_c_bang empty 17 7 0 10 #fcfcfc
#000000 #000000;
#X obj 330 540 hip~ 10000;
#X obj 330 516 hip~ 10000;
#X obj 330 491 hip~ 10000;
#X obj 330 466 hip~ 10000;
#X text 455 86 cl decay;
#X obj 513 162 t b b;
#X obj 513 234 pack;
#X obj 513 212 f;
#X msg 513 257 0 \$1;
#X obj 528 108 nbx 5 14 6 2000 0 1 empty hihat_op_decay empty 0 -8
0 10 #fcfcfc #000000 #000000 948.047 256;
#X obj 513 49 bng 15 250 50 0 empty hihat_o_bang empty 17 7 0 10 #fcfcfc
#000000 #000000;
#X text 528 87 op decay;
#X obj 435 432 nbx 5 14 500 6500 0 1 empty hihat_hpf empty 0 -8 0 10
#fcfcfc #000000 #000000 1208.66 256;
#X text 435 414 hpf;
#X msg 485 256 1 0;
#X msg 558 257 1 0;
#N canvas 126 363 450 300 osc_pair_1 0;
#X obj 224 130 expr~ $v1 > 0.5;
#X obj 125 130 expr~ $v1 > 0.5;
#X obj 201 162 *~;
#X obj 125 91 osc~ 8220;
#X obj 224 106 osc~ 7540;
#X obj 125 45 nbx 5 14 2000 10000 0 1 empty hihat_pitch_1 empty 0 -8
0 10 #fcfcfc #000000 #000000 7732.28 256;
#X text 80 41 pitch 1;
#X obj 201 192 outlet~;
#X obj 224 83 - 1000;
#X obj 257 27 inlet;
#X obj 224 54 bng 15 250 50 0 empty empty empty 17 7 0 10 #fcfcfc #000000
#000000;
#X connect 0 0 2 1;
#X connect 1 0 2 0;
#X connect 2 0 7 0;
#X connect 3 0 1 0;
#X connect 4 0 0 0;
#X connect 5 0 3 0;
#X connect 5 0 8 0;
#X connect 8 0 4 0;
#X connect 9 0 8 1;
#X connect 9 0 10 0;
#X connect 10 0 8 0;
#X restore 234 295 pd osc_pair_1;
#N canvas 334 423 450 300 osc_pair_2 0;
#X obj 226 129 expr~ $v1 > 0.5;
#X obj 127 129 expr~ $v1 > 0.5;
#X obj 203 161 *~;
#X obj 127 90 osc~ 4410;
#X obj 226 105 osc~ 6250;
#X obj 127 49 nbx 5 14 2000 10000 0 1 empty hihat_pitch_2 empty 0 -8
0 10 #fcfcfc #000000 #000000 4519.69 256;
#X obj 203 197 outlet~;
#X obj 226 81 + 2000;
#X text 76 49 pitch 2;
#X obj 259 19 inlet;
#X obj 259 50 * 2;
#X obj 226 53 bng 15 250 50 0 empty empty empty 17 7 0 10 #fcfcfc #000000
#000000;
#X connect 0 0 2 1;
#X connect 1 0 2 0;
#X connect 2 0 6 0;
#X connect 3 0 1 0;
#X connect 4 0 0 0;
#X connect 5 0 3 0;
#X connect 5 0 7 0;
#X connect 7 0 4 0;
#X connect 9 0 10 0;
#X connect 9 0 11 0;
#X connect 10 0 7 1;
#X connect 11 0 7 0;
#X restore 287 317 pd osc_pair_2;
#N canvas 481 436 450 300 osc_pair_3 0;
#X obj 214 129 expr~ $v1 > 0.5;
#X obj 214 106 osc~ 6000;
#X obj 115 129 expr~ $v1 > 0.5;
#X obj 115 90 osc~ 3500;
#X obj 191 161 *~;
#X obj 115 50 nbx 5 14 2000 10000 0 1 empty hihat_pitch_3 empty 0 -8
0 10 #fcfcfc #000000 #000000 4393.7 256;
#X text 62 48 pitch 3;
#X obj 214 83 + 2500;
#X obj 191 190 outlet~;
#X obj 247 17 inlet;
#X obj 247 44 * 2.5;
#X obj 214 53 bng 15 250 50 0 empty empty empty 17 7 0 10 #fcfcfc #000000
#000000;
#X connect 0 0 4 1;
#X connect 1 0 0 0;
#X connect 2 0 4 0;
#X connect 3 0 2 0;
#X connect 4 0 8 0;
#X connect 5 0 3 0;
#X connect 5 0 7 0;
#X connect 7 0 1 0;
#X connect 9 0 10 0;
#X connect 9 0 11 0;
#X connect 10 0 7 1;
#X connect 11 0 7 0;
#X restore 330 340 pd osc_pair_3;
#X obj 330 572 *~ 0.2;
#X obj 440 307 line~;
#X obj 395 404 *~;
#X obj 329 239 nbx 5 14 0 10000 0 1 empty hihat_fm_width empty 0 -8
0 10 #fcfcfc #000000 #000000 2878.27 256;
#X text 328 218 am width;
#X obj 345 608 outlet~;
#X connect 0 0 3 0;
#X connect 0 1 21 0;
#X connect 1 0 10 0;
#X connect 2 0 4 0;
#X connect 3 0 2 0;
#X connect 4 0 27 0;
#X connect 5 0 3 1;
#X connect 6 0 0 0;
#X connect 7 0 26 0;
#X connect 8 0 7 0;
#X connect 9 0 8 0;
#X connect 10 0 9 0;
#X connect 12 0 14 0;
#X connect 12 1 22 0;
#X connect 13 0 15 0;
#X connect 14 0 13 0;
#X connect 15 0 27 0;
#X connect 16 0 14 1;
#X connect 17 0 12 0;
#X connect 19 0 10 1;
#X connect 19 0 9 1;
#X connect 19 0 8 1;
#X connect 19 0 7 1;
#X connect 21 0 27 0;
#X connect 22 0 27 0;
#X connect 23 0 1 0;
#X connect 24 0 1 0;
#X connect 25 0 1 0;
#X connect 26 0 31 0;
#X connect 27 0 28 0;
#X connect 27 0 28 1;
#X connect 28 0 1 1;
#X connect 29 0 23 0;
#X connect 29 0 24 0;
#X connect 29 0 25 0;
#X restore 310 119 pd AMhihat;
#X obj 217 9 vsl 15 128 10 5000 0 1 hihat_fm_width empty empty 0 -9
0 10 #fcfcfc #000000 #000000 7300 1;
#X text 201 141 AM tune;
#X obj 319 29 inlet;
#X obj 305 2 inlet;
#X obj 252 163 outlet~;
#X connect 15 0 20 0;
#X connect 18 0 9 0;
#X connect 19 0 1 0;
#X coords 0 -1 1 1 302 182 1 1 1;
