#N canvas 532 354 876 518 10;
#X obj 21 2 cnv 15 400 180 empty empty empty 21 10 0 14 #b8b8b8 #404040
0;
#X obj 377 30 bng 40 250 50 0 snare_bang empty SNARE 6 22 0 12 #fc0400
#000000 #000000;
#X obj 117 10 vsl 15 128 2 200 0 1 snare_fall_time empty empty 0 -9
0 10 #fcfcfc #000000 #000000 3700 1;
#X obj 160 26 vsl 15 128 35 150 0 1 snare_end_pitch empty empty 0 -9
0 10 #fcfcfc #000000 #000000 6400 1;
#X obj 248 27 vsl 15 128 5 200 0 1 snare_noise_decay empty empty 0
-9 0 10 #fcfcfc #000000 #000000 8400 1;
#X obj 77 26 vsl 15 128 40 400 0 1 snare_max_pitch empty empty 0 -9
0 10 #fcfcfc #000000 #000000 3500 1;
#X obj 199 10 vsl 15 128 5 200 0 1 snare_amp_decay empty empty 0 -9
0 10 #fcfcfc #000000 #000000 3000 1;
#X obj 41 12 vsl 15 128 1 80 0 1 snare_fm_pitch empty empty 0 -9 0
10 #fcfcfc #000000 #000000 10200 1;
#N canvas 0 135 733 689 snare 0;
#X obj 231 362 osc~;
#X obj 330 218 t b b;
#X obj 315 440 *~;
#X obj 330 290 pack;
#X obj 330 268 f;
#X msg 330 313 0 \$1;
#X obj 330 246 del 2;
#X obj 375 243 nbx 5 14 50 8000 0 1 empty snare_amp_decay empty 0 -8
0 10 #fcfcfc #000000 #000000 51.063 256;
#X text 376 226 amp decay;
#X obj 575 143 nbx 5 14 5 600 0 1 empty snare_noise_decay empty 0 -8
0 10 #fcfcfc #000000 #000000 133.976 256;
#X obj 330 364 line~;
#X obj 330 404 *~;
#X obj 204 68 t b b;
#X obj 231 339 line~;
#X obj 172 212 nbx 5 14 -1e+37 1e+37 0 1 empty snare_fall_time empty
0 -8 0 10 #fcfcfc #000000 #000000 59.685 256;
#X obj 166 149 nbx 5 14 -1e+37 1e+37 0 0 empty snare_end_pitch empty
0 -8 0 10 #fcfcfc #000000 #000000 0 256;
#X obj 246 170 nbx 5 14 -1e+37 1e+37 0 1 empty snare_max_pitch empty
0 -8 0 10 #fcfcfc #000000 #000000 139.213 256;
#X obj 151 234 pack;
#X msg 151 259 \$1 \$2;
#X text 245 151 max pitch;
#X obj 231 236 pack;
#X obj 270 339 nbx 5 14 1 15000 0 0 empty snare_fm_pitch empty 0 -8
0 10 #fcfcfc #000000 #000000 0 256;
#X obj 330 36 bng 15 250 50 0 empty snare_bang empty 17 7 0 10 #fcfcfc
#000000 #000000;
#X msg 95 282 0 0;
#X obj 95 229 loadbang;
#X obj 95 258 del 2;
#X obj 231 195 f;
#X obj 151 171 f;
#X obj 151 108 del 1;
#X msg 231 261 \$1 0;
#X obj 270 364 osc~;
#X obj 231 395 *~;
#X text 163 130 end pitch;
#X text 173 193 fall time;
#X obj 446 322 noise~;
#X text 574 125 noise decay;
#X obj 560 186 t b b;
#X obj 560 258 pack;
#X obj 560 236 f;
#X msg 560 281 0 \$1;
#X obj 560 322 line~;
#X obj 560 357 *~;
#X obj 446 401 *~;
#X obj 563 397 nbx 5 14 0 1 0 1 empty snare_noise_level empty 0 -8
0 10 #fcfcfc #000000 #000000 0.226772 256;
#X text 558 380 noise level;
#X floatatom 578 425 5 0 0 0 - - - 0;
#X obj 563 449 *;
#X obj 446 493 *~;
#X msg 606 281 1 0;
#X msg 377 313 1 1.5;
#X obj 315 467 hip~ 400;
#X obj 315 491 hip~ 400;
#X obj 378 446 nbx 5 14 0 5000 0 0 empty snare_hpf empty 0 -8 0 10
#fcfcfc #000000 #000000 0 256;
#X text 377 428 HPF;
#X obj 446 351 lop~ 1000;
#X obj 497 324 nbx 5 14 0 10000 0 0 empty snare_lpf empty 0 -8 0 10
#fcfcfc #000000 #000000 0 256;
#X text 496 306 LPF;
#X text 269 321 AM pitch;
#X obj 375 582 outlet~;
#X connect 0 0 31 0;
#X connect 1 0 6 0;
#X connect 1 1 49 0;
#X connect 2 0 50 0;
#X connect 3 0 5 0;
#X connect 4 0 3 0;
#X connect 5 0 10 0;
#X connect 6 0 4 0;
#X connect 7 0 4 1;
#X connect 9 0 38 1;
#X connect 10 0 11 1;
#X connect 10 0 11 0;
#X connect 11 0 2 1;
#X connect 12 0 28 0;
#X connect 12 1 26 0;
#X connect 13 0 0 0;
#X connect 14 0 17 1;
#X connect 15 0 27 1;
#X connect 16 0 26 1;
#X connect 17 0 18 0;
#X connect 18 0 13 0;
#X connect 20 0 29 0;
#X connect 21 0 30 0;
#X connect 22 0 12 0;
#X connect 22 0 1 0;
#X connect 22 0 36 0;
#X connect 23 0 13 0;
#X connect 24 0 25 0;
#X connect 25 0 23 0;
#X connect 26 0 20 0;
#X connect 27 0 17 0;
#X connect 28 0 27 0;
#X connect 29 0 13 0;
#X connect 30 0 31 1;
#X connect 31 0 2 0;
#X connect 34 0 54 0;
#X connect 36 0 38 0;
#X connect 36 1 48 0;
#X connect 37 0 39 0;
#X connect 38 0 37 0;
#X connect 39 0 40 0;
#X connect 40 0 41 0;
#X connect 40 0 41 1;
#X connect 41 0 42 1;
#X connect 42 0 47 0;
#X connect 43 0 45 0;
#X connect 43 0 46 0;
#X connect 45 0 46 1;
#X connect 46 0 47 1;
#X connect 47 0 58 0;
#X connect 48 0 40 0;
#X connect 49 0 10 0;
#X connect 50 0 51 0;
#X connect 51 0 58 0;
#X connect 52 0 50 1;
#X connect 52 0 51 1;
#X connect 54 0 42 0;
#X connect 55 0 54 1;
#X restore 453 171 pd snare;
#X text 180 142 Tone Decay;
#X text 141 158 End Pitch;
#X text 57 158 Start Pitch;
#X text 98 142 Fall Time;
#X text 226 159 Noise Decay;
#X obj 291 10 vsl 15 128 0 0.6 0 1 snare_noise_level empty empty 0
-9 0 10 #fcfcfc #000000 #000000 4800 1;
#X obj 329 26 vsl 15 128 0 500 0 1 snare_hpf empty empty 0 -9 0 10
#fcfcfc #000000 #000000 7200 1;
#X obj 359 9 vsl 15 128 1000 10000 0 1 snare_lpf empty empty 0 -9 0
10 #fcfcfc #000000 #000000 5700 1;
#X text 324 160 Tone HPF;
#X text 353 143 Noise LPF;
#X text 21 144 AM Pitch;
#X obj 378 5 inlet;
#X obj 427 202 outlet~;
#X text 269 142 Noise lvl;
#X connect 8 0 21 0;
#X connect 20 0 1 0;
#X coords 0 -1 1 1 400 180 1 20 1;
