#N canvas 562 332 888 334 10;
#X obj 26 17 cnv 15 800 200 empty empty empty 20 12 0 14 -191407 -66577
0;
#X obj 725 29 bng 80 250 50 0 hihat_c_bang empty HIHAT_C 6 40 0 16
-258113 -1 -1;
#X obj 222 35 vsl 15 128 2000 10000 0 1 hihat_pitch_3 empty empty 0
-9 0 10 -262144 -1 -1 7900 1;
#X obj 300 35 vsl 15 128 500 6500 0 1 hihat_hpf empty empty 0 -9 0
10 -262144 -1 -1 2400 1;
#X obj 459 35 vsl 15 128 6 2000 0 1 hihat_op_decay empty empty 0 -9
0 10 -262144 -1 -1 6000 1;
#X obj 380 35 vsl 15 128 2 175 0 1 hihat_cl_decay empty empty 0 -9
0 10 -262144 -1 -1 2200 1;
#X obj 67 35 vsl 15 128 2000 10000 0 1 hihat_pitch_1 empty empty 0
-9 0 10 -262144 -1 -1 4400 1;
#X text 362 167 Cl Decay;
#X text 437 167 Op Decay;
#X obj 725 118 bng 80 250 50 0 hihat_o_bang empty HIHAT_O 6 40 0 16
-258113 -1 -1;
#X text 298 167 HPF;
#X text 47 167 Pitch 1;
#X text 207 167 Pitch 3;
#X obj 141 35 vsl 15 128 2000 10000 0 1 hihat_pitch_2 empty empty 0
-9 0 10 -262144 -1 -1 8500 1;
#X text 121 167 Pitch 2;
#N canvas 1187 204 733 689 FMhihat 0;
#X obj 440 161 t b b;
#X obj 330 437 *~;
#X obj 440 233 pack;
#X obj 440 211 f;
#X msg 440 256 0 \$1;
#X obj 455 107 nbx 5 14 2 175 0 1 empty hihat_cl_decay empty 0 -8 0
10 -262144 -1 -1 31.9685 256;
#X obj 440 48 bng 15 250 50 0 empty hihat_c_bang empty 17 7 0 10 -262144
-1 -1;
#X obj 330 540 hip~ 10000;
#X obj 330 516 hip~ 10000;
#X obj 330 491 hip~ 10000;
#X obj 330 466 hip~ 10000;
#X text 455 86 cl decay;
#X obj 513 162 t b b;
#X obj 513 234 pack;
#X obj 513 212 f;
#X msg 513 257 0 \$1;
#X obj 528 108 nbx 5 14 6 2000 0 1 empty hihat_op_decay empty 0 -8
0 10 -262144 -1 -1 948.047 256;
#X obj 513 49 bng 15 250 50 0 empty hihat_o_bang empty 17 7 0 10 -262144
-1 -1;
#X text 528 87 op decay;
#X obj 435 432 nbx 5 14 500 6500 0 1 empty hihat_hpf empty 0 -8 0 10
-262144 -1 -1 1633.86 256;
#X text 435 414 hpf;
#X msg 485 256 1 0;
#X msg 558 257 1 0;
#N canvas 126 363 450 300 osc_pair_1 0;
#X obj 125 273 expr~ $v1 > 0.5;
#X obj 125 246 osc~ 8220;
#X obj 224 106 osc~ 7540;
#X obj 125 45 nbx 5 14 2000 10000 0 1 empty hihat_pitch_1 empty 0 -8
0 10 -262144 -1 -1 4771.65 256;
#X text 78 41 pitch 1;
#X obj 125 301 outlet~;
#X obj 125 89 sig~;
#X obj 125 222 +~;
#X obj 224 82 - 220;
#X obj 251 -16 inlet;
#X obj 186 10 bng 15 250 50 0 empty empty empty 17 7 0 10 -262144 -1
-1;
#X obj 224 198 *~;
#X obj 305 89 nbx 5 14 0 10000 0 1 empty empty empty 0 -8 0 10 -262144
-1 -1 7086.61 256;
#X obj 224 146 expr~ $v1 > 0.5;
#X obj 305 20 inlet;
#X connect 0 0 5 0;
#X connect 1 0 0 0;
#X connect 2 0 13 0;
#X connect 3 0 6 0;
#X connect 3 0 8 0;
#X connect 6 0 7 0;
#X connect 7 0 1 0;
#X connect 8 0 2 0;
#X connect 9 0 10 0;
#X connect 9 0 8 1;
#X connect 10 0 3 0;
#X connect 10 0 12 0;
#X connect 11 0 7 1;
#X connect 12 0 11 1;
#X connect 13 0 11 0;
#X connect 14 0 12 0;
#X restore 234 295 pd osc_pair_1;
#N canvas 497 355 474 372 osc_pair_2 0;
#X text 85 46 pitch 2;
#X obj 134 49 nbx 5 14 2000 10000 0 1 empty hihat_pitch_2 empty 0 -8
0 10 -262144 -1 -1 7354.33 256;
#X obj 134 281 outlet~;
#X obj 233 140 expr~ $v1 > 0.5;
#X obj 134 256 expr~ $v1 > 0.5;
#X obj 134 229 osc~ 8220;
#X obj 233 116 osc~ 7540;
#X obj 134 94 sig~;
#X obj 134 205 +~;
#X obj 233 93 + 300;
#X obj 260 -24 inlet;
#X obj 260 59 * 1.55;
#X obj 233 6 bng 15 250 50 0 empty empty empty 17 7 0 10 -262144 -1
-1;
#X obj 315 99 nbx 5 14 0 10000 0 1 empty empty empty 0 -8 0 10 -262144
-1 -1 7086.61 256;
#X obj 233 165 *~;
#X obj 315 -24 inlet;
#X connect 1 0 7 0;
#X connect 1 0 9 0;
#X connect 3 0 14 0;
#X connect 4 0 2 0;
#X connect 5 0 4 0;
#X connect 6 0 3 0;
#X connect 7 0 8 0;
#X connect 8 0 5 0;
#X connect 9 0 6 0;
#X connect 10 0 11 0;
#X connect 10 0 12 0;
#X connect 11 0 9 1;
#X connect 12 0 1 0;
#X connect 12 0 13 0;
#X connect 13 0 14 1;
#X connect 14 0 8 1;
#X connect 15 0 13 0;
#X restore 287 317 pd osc_pair_2;
#N canvas 481 436 524 526 osc_pair_3 0;
#X obj 145 55 nbx 5 14 2000 10000 0 1 empty hihat_pitch_3 empty 0 -8
0 10 -262144 -1 -1 6976.38 256;
#X text 97 51 pitch 3;
#X obj 145 325 outlet~;
#X obj 244 150 expr~ $v1 > 0.5;
#X obj 145 297 expr~ $v1 > 0.5;
#X obj 145 270 osc~ 8220;
#X obj 244 126 osc~ 7540;
#X obj 145 86 sig~;
#X obj 145 246 +~;
#X obj 244 103 + 250;
#X obj 271 -26 inlet;
#X obj 271 69 * 1.25;
#X obj 244 1 bng 15 250 50 0 empty empty empty 17 7 0 10 -262144 -1
-1;
#X obj 325 109 nbx 5 14 0 10000 0 1 empty empty empty 0 -8 0 10 -262144
-1 -1 7086.61 256;
#X obj 244 182 *~;
#X obj 325 2 inlet;
#X connect 0 0 7 0;
#X connect 0 0 9 0;
#X connect 3 0 14 0;
#X connect 4 0 2 0;
#X connect 5 0 4 0;
#X connect 6 0 3 0;
#X connect 7 0 8 0;
#X connect 8 0 5 0;
#X connect 9 0 6 0;
#X connect 10 0 11 0;
#X connect 10 0 12 0;
#X connect 11 0 9 1;
#X connect 12 0 9 0;
#X connect 12 0 0 0;
#X connect 12 0 13 0;
#X connect 13 0 14 1;
#X connect 14 0 8 1;
#X connect 15 0 13 0;
#X restore 330 340 pd osc_pair_3;
#X obj 330 602 dac~;
#X obj 330 572 *~ 0.2;
#X obj 440 307 line~;
#X obj 395 404 *~;
#X text 233 227 fm width;
#X obj 234 248 nbx 5 14 0 10000 0 1 empty hihat_fm_width empty 0 -8
0 10 -262144 -1 -1 3624.8 256;
#X obj 362 243 nbx 5 14 0 10000 0 1 empty hihat_fm_depth empty 0 -8
0 10 -262144 -1 -1 7086.61 256;
#X text 361 222 fm depth;
#X connect 0 0 3 0;
#X connect 0 1 21 0;
#X connect 1 0 10 0;
#X connect 2 0 4 0;
#X connect 3 0 2 0;
#X connect 4 0 28 0;
#X connect 5 0 3 1;
#X connect 6 0 0 0;
#X connect 7 0 27 0;
#X connect 8 0 7 0;
#X connect 9 0 8 0;
#X connect 10 0 9 0;
#X connect 12 0 14 0;
#X connect 12 1 22 0;
#X connect 13 0 15 0;
#X connect 14 0 13 0;
#X connect 15 0 28 0;
#X connect 16 0 14 1;
#X connect 17 0 12 0;
#X connect 19 0 10 1;
#X connect 19 0 9 1;
#X connect 19 0 8 1;
#X connect 19 0 7 1;
#X connect 21 0 28 0;
#X connect 22 0 28 0;
#X connect 23 0 1 0;
#X connect 24 0 1 0;
#X connect 25 0 1 0;
#X connect 27 0 26 0;
#X connect 27 0 26 1;
#X connect 28 0 29 0;
#X connect 28 0 29 1;
#X connect 29 0 1 1;
#X connect 31 0 23 0;
#X connect 31 0 25 0;
#X connect 31 0 24 0;
#X connect 32 0 25 1;
#X connect 32 0 24 1;
#X connect 32 0 23 1;
#X restore 425 196 pd FMhihat;
#X obj 537 35 vsl 15 128 10 5000 0 1 hihat_fm_width empty empty 0 -9
0 10 -262144 -1 -1 9200 1;
#X text 521 167 FM tune;
#X obj 621 35 vsl 15 128 0 10000 0 1 hihat_fm_depth empty empty 0 -9
0 10 -262144 -1 -1 9000 1;
#X text 605 167 FM depth;
