#N canvas 634 435 876 518 10;
#X obj 26 17 cnv 15 550 200 empty empty empty 20 12 0 14 -191407 -66577
0;
#X obj 466 47 bng 80 250 50 0 tom_bang empty TOM 19 37 0 22 -258113
-1 -1;
#X obj 147 43 vsl 15 128 2 1400 0 1 tom_fall_time empty empty 0 -9
0 10 -262144 -1 -1 3700 1;
#X obj 225 43 vsl 15 128 50 200 0 1 tom_end_pitch empty empty 0 -9
0 10 -262144 -1 -1 1700 1;
#X obj 69 43 vsl 15 128 40 1200 0 1 tom_max_pitch empty empty 0 -9
0 10 -262144 -1 -1 1000 1;
#X text 206 175 End Pitch;
#X text 49 175 Start Pitch;
#X text 128 175 Fall Time;
#X obj 386 44 vsl 15 128 0 500 0 1 tom_hpf empty empty 0 -9 0 10 -262144
-1 -1 3100 1;
#N canvas 0 135 733 689 tom 1;
#X obj 231 411 osc~;
#X obj 330 218 t b b;
#X obj 315 467 *~;
#X obj 372 550 dac~;
#X obj 330 290 pack;
#X obj 330 268 f;
#X msg 330 313 0 \$1;
#X obj 330 246 del 2;
#X text 376 226 amp decay;
#X obj 330 364 line~;
#X obj 330 404 *~;
#X obj 204 68 t b b;
#X obj 231 339 line~;
#X obj 172 212 nbx 5 14 -1e+37 1e+37 0 1 empty tom_fall_time empty
0 -8 0 10 -262144 -1 -1 409.291 256;
#X obj 166 149 nbx 5 14 -1e+37 1e+37 0 0 empty tom_end_pitch empty
0 -8 0 10 -262144 -1 -1 70.0787 256;
#X obj 246 170 nbx 5 14 -1e+37 1e+37 0 1 empty tom_max_pitch empty
0 -8 0 10 -262144 -1 -1 131.339 256;
#X obj 151 234 pack;
#X msg 151 259 \$1 \$2;
#X text 245 151 max pitch;
#X obj 231 236 pack;
#X obj 330 36 bng 15 250 50 0 empty tom_bang empty 17 7 0 10 -262144
-1 -1;
#X msg 95 282 0 0;
#X obj 95 229 loadbang;
#X obj 95 258 del 2;
#X obj 231 195 f;
#X obj 151 171 f;
#X obj 151 108 del 1;
#X msg 231 261 \$1 0;
#X text 163 130 end pitch;
#X text 173 193 fall time;
#X obj 446 493 *~;
#X msg 377 313 1 1.5;
#X obj 315 494 hip~ 400;
#X obj 315 518 hip~ 400;
#X obj 379 468 nbx 5 14 0 5000 0 0 empty tom_hpf empty 0 -8 0 10 -262144
-1 -1 122.047 256;
#X text 378 450 HPF;
#X obj 378 249 nbx 5 14 10 1400 1 0 empty tom_amp_decay empty 0 -8
0 10 -262144 -1 -1 290.591 256;
#X connect 0 0 2 0;
#X connect 1 0 7 0;
#X connect 1 1 31 0;
#X connect 2 0 32 0;
#X connect 4 0 6 0;
#X connect 5 0 4 0;
#X connect 6 0 9 0;
#X connect 7 0 5 0;
#X connect 9 0 10 1;
#X connect 9 0 10 0;
#X connect 10 0 2 1;
#X connect 11 0 26 0;
#X connect 11 1 24 0;
#X connect 12 0 0 0;
#X connect 13 0 16 1;
#X connect 14 0 25 1;
#X connect 15 0 24 1;
#X connect 16 0 17 0;
#X connect 17 0 12 0;
#X connect 19 0 27 0;
#X connect 20 0 11 0;
#X connect 20 0 1 0;
#X connect 21 0 12 0;
#X connect 22 0 23 0;
#X connect 23 0 21 0;
#X connect 24 0 19 0;
#X connect 25 0 16 0;
#X connect 26 0 25 0;
#X connect 27 0 12 0;
#X connect 30 0 3 1;
#X connect 30 0 3 0;
#X connect 31 0 9 0;
#X connect 32 0 33 0;
#X connect 33 0 3 0;
#X connect 33 0 3 1;
#X connect 34 0 32 1;
#X connect 34 0 33 1;
#X connect 36 0 5 1;
#X restore 480 165 pd tom;
#X obj 307 43 vsl 15 128 5 1400 0 1 tom_amp_decay empty empty 0 -9
0 10 -262144 -1 -1 2600 1;
#X text 288 175 Amp Decay;
#X text 384 176 HPF;
